<svg width="62" height="62" version="1.1" viewBox="0 0 16.404 16.404" xmlns="http://www.w3.org/2000/svg">
 <g transform="matrix(.26458 0 0 .26458 -.28062 -.25135)">
  <path d="m30.6 18.7v-17.9c-0.9 0-1.9 0-2.9-0.1-1 0-1.5 0.4-1.9 1.3-2.2 5.9-6.7 9.3-13.9 10.4-0.3 0.1-0.7 0.1-1.1 0.1-0.9 0-1.8-0.2-2.7-0.3h-0.2c-0.2-0.1-0.4-0.2-0.6-0.2-0.8 0-1.3 0.3-1.7 1-0.7 1.1-1.4 2.3-2 3.4l-0.1 0.2c-0.4 0.7-0.9 1.5-1.3 2.3-0.5 0.8-0.4 1.6 0.2 2.3 2.3 2.7 3.5 5.9 3.5 10.2 0 4.2-1.3 7.7-3.9 10.6-0.6 0.6-0.6 1.3-0.2 2.1 1.3 2.3 2.3 4.2 3.4 6.2 0.1 0.2 0.3 0.5 0.6 0.7 0.2 0.2 0.5 0.2 0.8 0.2 0.2 0 0.4 0 0.7-0.1 0.7-0.2 1.7-0.3 2.7-0.3 2.9 0 6.4 1.3 9.2 3.3 3 2.1 5 4.8 5.6 7.5 0.1 0.4 0.3 1 0.8 1.3 0.3 0.2 0.8 0.3 1.4 0.3h3.2 0.6v-17.9h-0.2c-2.6-0.1-5.1-0.9-7.2-2.2-3.7-2.4-5.9-6.5-6-10.8 0-3.7 1.3-7.2 3.9-9.8 2.4-2.5 5.7-3.8 9.3-3.8z"/>
  <path d="m46.2 36c-1-0.7-3-2.1-5.1-3.6-3-2.1-6.1-4.2-7.1-5-1.7-1.2-3.9-1.1-5.4 0.3s-1.7 3.7-0.6 5.4c0.7 1.1 1.8 1.7 3.3 1.9 2.4 0.3 8 1.2 11.6 1.8l2.6 0.4h0.1c0.3 0 0.6-0.2 0.7-0.5 0.3-0.1 0.2-0.5-0.1-0.7z"/>
  <path d="m62.6 32c0 15.6-11.9 28.9-27.3 30.7v-12c4-0.2 8.2-1.8 11.6-4.7 4-3.4 6.8-8.4 7.4-14.1 0.7-5.7-0.9-11.7-4.6-16.7-3.4-4.5-8.5-8-14.4-9.4v-4.5c15.4 1.8 27.3 15.1 27.3 30.7z"/>
 </g>
</svg>
