<svg xmlns="http://www.w3.org/2000/svg" xmlns:xlink="http://www.w3.org/1999/xlink" version="1.1" x="0px" y="0px" viewBox="0 0 64 80" style="enable-background:new 0 0 64 64;" xml:space="preserve"><style type="text/css">
	.st0{fill:#2E79BE;}
	.st1{fill:#2D3E50;}
</style><g><path d="M30.6,18.7l0-17.9c-0.9,0-1.9,0-2.9-0.1c-1,0-1.5,0.4-1.9,1.3c-2.2,5.9-6.7,9.3-13.9,10.4c-0.3,0.1-0.7,0.1-1.1,0.1   c-0.9,0-1.8-0.2-2.7-0.3l-0.2,0C7.7,12.1,7.5,12,7.3,12c-0.8,0-1.3,0.3-1.7,1c-0.7,1.1-1.4,2.3-2,3.4l-0.1,0.2   c-0.4,0.7-0.9,1.5-1.3,2.3c-0.5,0.8-0.4,1.6,0.2,2.3c2.3,2.7,3.5,5.9,3.5,10.2c0,4.2-1.3,7.7-3.9,10.6c-0.6,0.6-0.6,1.3-0.2,2.1   c1.3,2.3,2.3,4.2,3.4,6.2c0.1,0.2,0.3,0.5,0.6,0.7c0.2,0.2,0.5,0.2,0.8,0.2c0.2,0,0.4,0,0.7-0.1C8,50.9,9,50.8,10,50.8   c2.9,0,6.4,1.3,9.2,3.3c3,2.1,5,4.8,5.6,7.5c0.1,0.4,0.3,1,0.8,1.3l0,0c0.3,0.2,0.8,0.3,1.4,0.3c1.2,0,2.4,0,3.2,0   c0.2,0,0.3,0,0.6,0l0-17.9l-0.2,0c-2.6-0.1-5.1-0.9-7.2-2.2c-3.7-2.4-5.9-6.5-6-10.8c0-3.7,1.3-7.2,3.9-9.8   C23.7,20,27,18.7,30.6,18.7z"/><path d="M46.2,36c-1-0.7-3-2.1-5.1-3.6c-3-2.1-6.1-4.2-7.1-5c-1.7-1.2-3.9-1.1-5.4,0.3c-1.5,1.4-1.7,3.7-0.6,5.4   c0.7,1.1,1.8,1.7,3.3,1.9c2.4,0.3,8,1.2,11.6,1.8l2.6,0.4c0,0,0.1,0,0.1,0c0.3,0,0.6-0.2,0.7-0.5C46.6,36.6,46.5,36.2,46.2,36z"/><path d="M62.6,32c0,15.6-11.9,28.9-27.3,30.7v-12c4-0.2,8.2-1.8,11.6-4.7c4-3.4,6.8-8.4,7.4-14.1c0.7-5.7-0.9-11.7-4.6-16.7   c-3.4-4.5-8.5-8-14.4-9.4V1.3C50.7,3.1,62.6,16.4,62.6,32z"/></g><text x="0" y="79" fill="#000000" font-size="5px" font-weight="bold" font-family="'Helvetica Neue', Helvetica, Arial-Unicode, Arial, Sans-serif">Created by Delwar Hossain</text><text x="0" y="84" fill="#000000" font-size="5px" font-weight="bold" font-family="'Helvetica Neue', Helvetica, Arial-Unicode, Arial, Sans-serif">from the Noun Project</text></svg>